<svg xmlns="http://www.w3.org/2000/svg" width="24" height="24" viewBox="0 0 24 24">
  <g id="_3002_Bus_square-blue-01" data-name="3002_Bus_square-blue-01" transform="translate(-372 -204)">
    <rect id="Rechteck_101" data-name="Rechteck 101" width="24" height="24" rx="1" transform="translate(372 204)" fill="#5c798f"/>
    <path id="Pfad_60" data-name="Pfad 60" d="M5.5,7.1V18.74a.535.535,0,0,0,.535.535h1.2v1.74c0,.134,0,.268.134.268H8.712a.268.268,0,0,0,.268-.268v-1.74h7.36v1.606a.268.268,0,0,0,.268.268h1.338c.134,0,.134-.134.134-.268V19.409h1.338a.669.669,0,0,0,.535-.669V7.1C19.954,4.018,5.5,3.884,5.5,7.1Zm9.9-1.071V7.364H10.05V6.026ZM8.31,18.2a1.14,1.14,0,1,1,1.065-1.138A1.14,1.14,0,0,1,8.31,18.2Zm8.833,0A1.14,1.14,0,1,1,18.214,17,1.2,1.2,0,0,1,17.143,18.2Zm1.071-3.346H7.106V9.773A1.071,1.071,0,0,1,8.177,8.7h8.967a1.071,1.071,0,0,1,1.071,1.071Z" transform="translate(371.5 203.263)" fill="#fff"/>
  </g>
</svg>
