<svg xmlns="http://www.w3.org/2000/svg" width="18" height="18" viewBox="0 0 18 18">
  <g id="_3002_Bus_poi-grey-01" data-name="3002_Bus_poi-grey-01" transform="translate(-236 -202)">
    <path id="Pfad_57" data-name="Pfad 57" d="M5.5,6.714v9.754a.448.448,0,0,0,.448.448H6.957v1.457c0,.112,0,.224.112.224H8.191a.224.224,0,0,0,.224-.224V16.916h6.166v1.345a.224.224,0,0,0,.224.224h1.121c.112,0,.112-.112.112-.224V17.028H17.16a.561.561,0,0,0,.448-.561V6.714C17.608,4.135,5.5,4.023,5.5,6.714Zm8.3-.9V6.938H9.312V5.817Zm-5.942,10.2a.955.955,0,1,1,.893-.953.955.955,0,0,1-.893.953Zm7.4,0a.955.955,0,1,1,.9-1.009,1.009,1.009,0,0,1-.9,1.009Zm.9-2.8H6.845V8.956a.9.9,0,0,1,.9-.9h7.512a.9.9,0,0,1,.9.9Z" transform="translate(233.5 199)" fill="#666767"/>
    <g id="Gruppe_110" data-name="Gruppe 110" transform="translate(-390 106)">
      <rect id="Rechteck_100" data-name="Rechteck 100" width="18" height="18" transform="translate(626 96)" fill="none"/>
    </g>
  </g>
</svg>
