<svg xmlns="http://www.w3.org/2000/svg" width="17.622" height="18.071" viewBox="0 0 17.622 18.071">
  <path id="_3010_Luftseilbahn_poi-blue-01" data-name="3010_Luftseilbahn_poi-blue-01" d="M21.522,13.458H18.237L15.4,7.634l6.72-1.642V4.2L16.595,5.544V4.2L10.174,5.693V7.037L4.5,8.381v1.792L11.07,8.68,9.129,13.458H5.247a.6.6,0,0,0-.6.6v7.466a.747.747,0,0,0,.6.747H21.522a.747.747,0,0,0,.6-.747V14.055a.6.6,0,0,0-.6-.6ZM12.265,8.381l2.24-.6,2.688,5.674H10.025Zm8.661,9.706a.448.448,0,0,1-.448.448H14.654c-.149,0-.3-.149-.3-.448V15.1c0-.3.149-.448.3-.448h5.823a.448.448,0,0,1,.448.448Zm-8.511,0a.448.448,0,0,1-.448.448H6.143a.448.448,0,0,1-.448-.448V15.1a.448.448,0,0,1,.448-.448h5.823a.448.448,0,0,1,.448.448Z" transform="translate(-4.5 -4.2)" fill="#5c798f"/>
</svg>
