<svg xmlns="http://www.w3.org/2000/svg" width="24" height="24" viewBox="0 0 24 24">
  <g id="_3010_Luftseilbahn_square-grey-01" data-name="3010_Luftseilbahn_square-grey-01" transform="translate(-628.004 -341.004)">
    <g id="Gruppe_112" data-name="Gruppe 112" transform="translate(625.104 338.104)">
      <path id="Pfad_80" data-name="Pfad 80" d="M25.4,2.9H4.4A1.5,1.5,0,0,0,2.9,4.4v21a1.5,1.5,0,0,0,1.5,1.5h21a1.5,1.5,0,0,0,1.5-1.5V4.4a1.5,1.5,0,0,0-1.5-1.5Z" fill="#666767" fill-rule="evenodd"/>
    </g>
    <path id="Pfad_81" data-name="Pfad 81" d="M19.323,12.262h-2.86L13.992,7.191l5.851-1.43V4.2L15.032,5.37V4.2L9.441,5.5V6.67L4.5,7.841V9.4l5.721-1.3-1.69,4.161H5.15a.52.52,0,0,0-.52.52v6.5a.65.65,0,0,0,.52.65H19.323a.65.65,0,0,0,.52-.65v-6.5a.52.52,0,0,0-.52-.52ZM11.262,7.841l1.95-.52,2.341,4.941H9.311ZM18.8,16.293a.39.39,0,0,1-.39.39H13.342c-.13,0-.26-.13-.26-.39v-2.6c0-.26.13-.39.26-.39h5.071a.39.39,0,0,1,.39.39Zm-7.412,0a.39.39,0,0,1-.39.39H5.93a.39.39,0,0,1-.39-.39v-2.6a.39.39,0,0,1,.39-.39H11a.39.39,0,0,1,.39.39Z" transform="translate(627.5 340.8)" fill="#fff"/>
  </g>
</svg>
