<svg id="_3010_Luftseilbahn_round-grey-01" data-name="3010_Luftseilbahn_round-grey-01" xmlns="http://www.w3.org/2000/svg" width="28.346" height="28.346" viewBox="0 0 28.346 28.346">
  <circle id="Ellipse_27" data-name="Ellipse 27" cx="14.173" cy="14.173" r="14.173" transform="translate(0 0)" fill="#666767"/>
  <path id="Pfad_77" data-name="Pfad 77" d="M19.323,12.262h-2.86L13.992,7.191l5.851-1.43V4.2L15.032,5.37V4.2L9.441,5.5V6.67L4.5,7.841V9.4l5.721-1.3-1.69,4.161H5.15a.52.52,0,0,0-.52.52v6.5a.65.65,0,0,0,.52.65H19.323a.65.65,0,0,0,.52-.65v-6.5a.52.52,0,0,0-.52-.52ZM11.262,7.841l1.95-.52,2.341,4.941H9.311ZM18.8,16.293a.39.39,0,0,1-.39.39H13.342c-.13,0-.26-.13-.26-.39v-2.6c0-.26.13-.39.26-.39h5.071a.39.39,0,0,1,.39.39Zm-7.412,0a.39.39,0,0,1-.39.39H5.93a.39.39,0,0,1-.39-.39v-2.6a.39.39,0,0,1,.39-.39H11a.39.39,0,0,1,.39.39Z" transform="translate(1.351 1.261)" fill="#fff"/>
</svg>
