<svg id="_3004_Schiff_round-grey-01" data-name="3004_Schiff_round-grey-01" xmlns="http://www.w3.org/2000/svg" width="28.8" height="28.8" viewBox="0 0 28.8 28.8">
  <circle id="Ellipse_25" data-name="Ellipse 25" cx="14.4" cy="14.4" r="14.4" transform="translate(0 0)" fill="#666767"/>
  <path id="Pfad_73" data-name="Pfad 73" d="M5.3,11.509l1.585,5.549h0A3.567,3.567,0,0,0,9.792,15.6,3.831,3.831,0,0,0,12.7,17.058,3.963,3.963,0,0,0,15.737,15.6a3.567,3.567,0,0,0,2.906,1.453h0L20.228,11.5l-.661-.264-.925-.264v-4.1A1.453,1.453,0,0,0,17.19,5.3H8.339A1.453,1.453,0,0,0,6.885,6.885v4.1l-.925.264Zm11.89-1.057L12.7,9,8.34,10.453V6.885h8.85Zm1.453,8.191a4.624,4.624,0,0,1-2.906-1.057,5.02,5.02,0,0,1-5.945,0,4.888,4.888,0,0,1-2.906,1.057H5.432V20.1H6.885a5.681,5.681,0,0,0,2.907-.8,6.738,6.738,0,0,0,5.945,0,5.681,5.681,0,0,0,2.906.793H20.1v-1.45Z" transform="translate(1.702 1.702)" fill="#fff"/>
</svg>
