<svg xmlns="http://www.w3.org/2000/svg" width="24" height="24" viewBox="0 0 24 24">
  <g id="_3004_Schiff_square-grey-01" data-name="3004_Schiff_square-grey-01" transform="translate(-196 -274)">
    <rect id="Rechteck_106" data-name="Rechteck 106" width="24" height="24" rx="1" transform="translate(196 274)" fill="#666767"/>
    <path id="Pfad_75" data-name="Pfad 75" d="M5.3,11.509l1.585,5.549h0A3.567,3.567,0,0,0,9.792,15.6,3.831,3.831,0,0,0,12.7,17.058,3.963,3.963,0,0,0,15.737,15.6a3.567,3.567,0,0,0,2.906,1.453h0L20.228,11.5l-.661-.264-.925-.264v-4.1A1.453,1.453,0,0,0,17.19,5.3H8.339A1.453,1.453,0,0,0,6.885,6.885v4.1l-.925.264Zm11.89-1.057L12.7,9,8.34,10.453V6.885h8.85Zm1.453,8.191a4.624,4.624,0,0,1-2.906-1.057,5.02,5.02,0,0,1-5.945,0,4.888,4.888,0,0,1-2.906,1.057H5.432V20.1H6.885a5.681,5.681,0,0,0,2.907-.8,6.738,6.738,0,0,0,5.945,0,5.681,5.681,0,0,0,2.906.793H20.1v-1.45Z" transform="translate(195.7 273.7)" fill="#fff"/>
  </g>
</svg>
