<svg id="_3010_funicular_round-blue-01" data-name="3010_funicular_round-blue-01" xmlns="http://www.w3.org/2000/svg" width="28.346" height="28.346" viewBox="0 0 28.346 28.346">
  <circle id="Ellipse_9" data-name="Ellipse 9" cx="14.173" cy="14.173" r="14.173" transform="translate(0 0)" fill="#5c798f"/>
  <g id="Gruppe_17" data-name="Gruppe 17" transform="translate(-398.295 -279.893)">
    <path id="Pfad_111" data-name="Pfad 111" d="M420.545,285.785l-16.039,4.082a.6.6,0,0,0-.45.584l-.01,8.316a.6.6,0,0,0,.747.584l.685-.174a1.028,1.028,0,0,0,1.01.883,1.041,1.041,0,0,0,1.041-1.042,1.016,1.016,0,0,0-.07-.346l.622-.158a1.027,1.027,0,0,0,1,.841,1.041,1.041,0,0,0,1.041-1.041,1.017,1.017,0,0,0-.061-.3l5.142-1.308a1.028,1.028,0,0,0,1.007.868,1.041,1.041,0,0,0,1.042-1.041,1.011,1.011,0,0,0-.067-.332l.66-.168a1.029,1.029,0,0,0,1.01.884,1.041,1.041,0,0,0,1.041-1.041,1.022,1.022,0,0,0-.07-.347l1-.256a.612.612,0,0,0,.45-.584l.019-8.316a.6.6,0,0,0-.75-.588Zm-8.74,7.965a.264.264,0,0,1-.208.249l-6.014,1.526a.256.256,0,0,1-.315-.248v-4.306a.267.267,0,0,1,.2-.258l6.1-1.543a.261.261,0,0,1,.323.248Zm8.221-1.976-6.238,1.665a.263.263,0,0,1-.313-.262V288.79a.262.262,0,0,1,.2-.253l6.213-1.572a.263.263,0,0,1,.33.253l.026,4.3a.271.271,0,0,1-.213.256Z" fill="#fff"/>
    <path id="Pfad_112" data-name="Pfad 112" d="M404.034,302.714,421.28,298.4v-1.214L404.034,301.5Z" transform="translate(0 -0.478)" fill="#fff"/>
  </g>
</svg>
