<svg id="_3011_Gondelbahn_round_blue-01" data-name="3011_Gondelbahn_round_blue-01" xmlns="http://www.w3.org/2000/svg" width="28.8" height="28.8" viewBox="0 0 28.8 28.8">
  <g id="Gruppe_29" data-name="Gruppe 29">
    <circle id="Ellipse_18" data-name="Ellipse 18" cx="14.4" cy="14.4" r="14.4" transform="translate(0 0)" fill="#5c798f"/>
  </g>
  <path id="Pfad_116" data-name="Pfad 116" d="M91.254,50.475,86.987,51.48v-.74l-4.639,1.144v.694l-3.16.752V54.4l5.089-1.211v4.419h-2.93a.674.674,0,0,0-.677.677V65.8a.674.674,0,0,0,.677.677h6.642a.674.674,0,0,0,.676-.677V58.286a.674.674,0,0,0-.676-.677H85.057V53l.7-.166,1.127-.27,2.359-.555.933-.21L96.847,50.2V49.153Zm-3.326,8.367v3.591a.276.276,0,0,1-.285.285H81.692a.289.289,0,0,1-.3-.285V58.842a.3.3,0,0,1,.3-.3h5.951a.289.289,0,0,1,.285.3Z" transform="translate(-73.617 -43.984)" fill="#fff"/>
</svg>
