<svg id="_3000_Zug_round-grey-01" data-name="3000_Zug_round-grey-01" xmlns="http://www.w3.org/2000/svg" width="28.346" height="28.346" viewBox="0 0 28.346 28.346">
  <circle id="Ellipse_19" data-name="Ellipse 19" cx="14.173" cy="14.173" r="14.173" transform="translate(0 0)" fill="#666767"/>
  <path id="Pfad_47" data-name="Pfad 47" d="M13.662,3.2H11.321A5.721,5.721,0,0,0,7.29,4.89h0A5.591,5.591,0,0,0,5.6,8.79v8.062l3.381,3.381h6.892l3.381-3.381V8.921a5.721,5.721,0,0,0-1.69-4.031h0a5.631,5.631,0,0,0-3.9-1.69ZM9.371,16.073,8.2,13.6h1.82l1.17,2.471Zm5.591,0h-1.82l1.17-2.471h1.82Zm.39-5.2h0a12.678,12.678,0,0,1-6.241,0h0A2.08,2.08,0,0,1,7.55,8.661h0A4.161,4.161,0,0,1,8.59,5.93h0a3.511,3.511,0,0,1,2.6-1.17h1.95A3.434,3.434,0,0,1,15.872,5.8h0a3.771,3.771,0,0,1,1.17,2.861h0a2.211,2.211,0,0,1-1.69,2.211Z" transform="translate(1.682 0.961)" fill="#fff"/>
  <rect id="Rechteck_90" data-name="Rechteck 90" width="6.892" height="1.3" transform="translate(10.662 22.235)" fill="#fff"/>
</svg>
