<svg xmlns="http://www.w3.org/2000/svg" width="18" height="18" viewBox="0 0 18 18">
  <g id="_3000_Zug_poi-grey-01" data-name="3000_Zug_poi-grey-01" transform="translate(-420 -96)">
    <g id="Gruppe_108" data-name="Gruppe 108" transform="translate(-1)">
      <path id="Pfad_45" data-name="Pfad 45" d="M13.023,3.2H10.868A5.268,5.268,0,0,0,7.156,4.756h0A5.148,5.148,0,0,0,5.6,8.348v7.423l3.113,3.113h6.345l3.113-3.113v-7.3A5.268,5.268,0,0,0,16.615,4.76h0A5.185,5.185,0,0,0,13.023,3.2ZM9.072,15.053,7.995,12.778H9.671l1.078,2.275Zm5.148,0H12.544l1.078-2.275H15.3Zm.359-4.789h0a11.673,11.673,0,0,1-5.747,0h0A1.916,1.916,0,0,1,7.4,8.228h0a3.831,3.831,0,0,1,.958-2.514h0a3.233,3.233,0,0,1,2.4-1.078h1.8a3.162,3.162,0,0,1,2.514.958h0a3.472,3.472,0,0,1,1.078,2.634h0a2.035,2.035,0,0,1-1.566,2.036Z" transform="translate(417.682 92.961)" fill="#666767"/>
      <rect id="Rechteck_87" data-name="Rechteck 87" width="6.345" height="1.197" transform="translate(426.395 112.803)" fill="#666767"/>
    </g>
    <rect id="Rechteck_88" data-name="Rechteck 88" width="18" height="18" transform="translate(420 96)" fill="none"/>
  </g>
</svg>
