<svg id="_3063_Metro_round_blue-01" data-name=" 3063 Metro round blue-01" xmlns="http://www.w3.org/2000/svg" width="28.346" height="28.346" viewBox="0 0 28.346 28.346">
  <g id="Gruppe_33" data-name="Gruppe 33">
    <circle id="Ellipse_20" data-name="Ellipse 20" cx="14.173" cy="14.173" r="14.173" transform="translate(0 0)" fill="#5c798f"/>
  </g>
  <g id="Gruppe_35" data-name="Gruppe 35">
    <g id="Gruppe_34" data-name="Gruppe 34">
      <path id="Pfad_120" data-name="Pfad 120" d="M20,23.865H8.485l1.668-1.654h8.181Z" fill="#fff"/>
    </g>
    <path id="Pfad_121" data-name="Pfad 121" d="M18.013,5.033H10.335a2.3,2.3,0,0,0-2.3,2.3h0V18.7a2.226,2.226,0,0,0,.043.446.824.824,0,0,0,.058.2A2.286,2.286,0,0,0,9.6,20.874a.053.053,0,0,1,.043.014,2.666,2.666,0,0,0,.69.1h7.678a2.8,2.8,0,0,0,.359-.029H18.4a2.237,2.237,0,0,0,1.84-1.754.882.882,0,0,0,.043-.187,2.16,2.16,0,0,0,.029-.316V7.334a2.3,2.3,0,0,0-2.3-2.3ZM10.694,18.3a1.273,1.273,0,1,1,1.265-1.281h0A1.27,1.27,0,0,1,10.7,18.3Zm6.787,0a1.273,1.273,0,1,1,1.262-1.284v0A1.27,1.27,0,0,1,17.485,18.3Zm1.553-6.413a1.092,1.092,0,0,1-1.091,1.093H10.407a1.092,1.092,0,0,1-1.093-1.091V7.405A1.092,1.092,0,0,1,10.4,6.312h7.538A1.092,1.092,0,0,1,19.036,7.4v0Z" fill="#fff"/>
  </g>
</svg>
