<svg xmlns="http://www.w3.org/2000/svg" width="24" height="24" viewBox="0 0 24 24">
  <g id="_3001_Tram_square-grey-01" data-name="3001_Tram_square-grey-01" transform="translate(-166 -204)">
    <rect id="Rechteck_98" data-name="Rechteck 98" width="24" height="24" rx="1" transform="translate(166 204)" fill="#666767"/>
    <path id="Pfad_55" data-name="Pfad 55" d="M17.564,9.182,15.876,6.845a.909.909,0,0,0-.779-.389H12.631V4.509h3.5a.909.909,0,0,1,.909.909h.909A1.817,1.817,0,0,0,16.136,3.6H8.217A1.947,1.947,0,0,0,6.4,5.417h.909a.909.909,0,0,1,.909-.909h3.5L11.7,6.456H9.1s-.243-.065-.568.28S6.789,9.052,6.789,9.052c-.13.13-.13.26-.13.519V19.827a1.428,1.428,0,0,0,.389.909l.779.779a1.168,1.168,0,0,0,.779.389h7.27a1.168,1.168,0,0,0,.779-.389l.779-.779a1.168,1.168,0,0,0,.389-.909V9.7a1.038,1.038,0,0,0-.26-.519ZM9,9.052a.389.389,0,0,1,.389-.389h5.322a.389.389,0,0,1,.389.389v6.62a.389.389,0,0,1-.389.389H9.386A.389.389,0,0,1,9,15.673ZM9,19.307a1.168,1.168,0,1,1,1.168-1.168A1.168,1.168,0,0,1,9,19.307Zm6.1,0a1.168,1.168,0,1,1,1.168-1.168A1.168,1.168,0,0,1,15.1,19.307Z" transform="translate(165.931 203.096)" fill="#fff"/>
  </g>
</svg>
