<svg xmlns="http://www.w3.org/2000/svg" width="18" height="18" viewBox="0 0 18 18">
  <g id="_3001_Tram_poi-blue-01" data-name="3001_Tram_poi-blue-01" transform="translate(-626 -96)">
    <path id="Pfad_50" data-name="Pfad 50" d="M15,7.9,13.7,6.1a.7.7,0,0,0-.6-.3H11.2V4.3h2.7a.7.7,0,0,1,.7.7h.7a1.4,1.4,0,0,0-1.4-1.4H7.8A1.5,1.5,0,0,0,6.4,5h.7a.7.7,0,0,1,.7-.7h2.7l-.016,1.5h-2s-.187-.05-.437.216S6.7,7.8,6.7,7.8c-.1.1-.1.2-.1.4v7.9a1.1,1.1,0,0,0,.3.7l.6.6a.9.9,0,0,0,.6.3h5.6a.9.9,0,0,0,.6-.3l.6-.6a.9.9,0,0,0,.3-.7V8.3a.8.8,0,0,0-.2-.4ZM8.4,7.8a.3.3,0,0,1,.3-.3h4.1a.3.3,0,0,1,.3.3v5.1a.3.3,0,0,1-.3.3H8.7a.3.3,0,0,1-.3-.3Zm0,7.9a.9.9,0,1,1,.9-.9A.9.9,0,0,1,8.4,15.7Zm4.7,0a.9.9,0,1,1,.9-.9A.9.9,0,0,1,13.1,15.7Z" transform="translate(624 94)" fill="#5c798f"/>
    <rect id="Rechteck_95" data-name="Rechteck 95" width="18" height="18" transform="translate(626 96)" fill="none"/>
  </g>
</svg>
