<svg id="_3001_Tram_round-blue-01" data-name="3001_Tram_round-blue-01" xmlns="http://www.w3.org/2000/svg" width="28.346" height="28.346" viewBox="0 0 28.346 28.346">
  <circle id="Ellipse_20" data-name="Ellipse 20" cx="14.173" cy="14.173" r="14.173" transform="translate(0 0)" fill="#5c798f"/>
  <path id="Pfad_52" data-name="Pfad 52" d="M17.583,9.191,15.893,6.85a.91.91,0,0,0-.78-.39H12.641V4.51h3.511a.91.91,0,0,1,.91.91h.91a1.82,1.82,0,0,0-1.82-1.82H8.22A1.95,1.95,0,0,0,6.4,5.42h.91a.91.91,0,0,1,.91-.91h3.511l-.02,1.95H9.11s-.244-.065-.569.28S6.79,9.061,6.79,9.061c-.13.13-.13.26-.13.52V19.854a1.43,1.43,0,0,0,.39.91l.78.78a1.17,1.17,0,0,0,.78.39h7.282a1.17,1.17,0,0,0,.78-.39l.78-.78a1.17,1.17,0,0,0,.39-.91V9.711a1.04,1.04,0,0,0-.26-.52ZM9,9.061a.39.39,0,0,1,.39-.39h5.331a.39.39,0,0,1,.39.39v6.631a.39.39,0,0,1-.39.39H9.391a.39.39,0,0,1-.39-.39ZM9,19.334a1.17,1.17,0,1,1,1.17-1.17A1.17,1.17,0,0,1,9,19.334Zm6.111,0a1.17,1.17,0,1,1,1.17-1.17,1.17,1.17,0,0,1-1.17,1.17Z" transform="translate(1.922 1.081)" fill="#fff"/>
</svg>
