<svg xmlns="http://www.w3.org/2000/svg" width="425" height="109.784" viewBox="0 0 425 109.784"><defs><style>.a,.c{fill:#6987a1}.b{fill:#76b833}.c{fill-rule:evenodd}.d{fill:none}</style></defs><g transform="translate(-140 -35)"><path d="M623.08,193.909a6.507,6.507,0,1,1-6.513,6.507A6.519,6.519,0,0,1,623.08,193.909Z" class="a" transform="translate(-281.089 -109.063)"/><path d="M591.207,136.534c20.369.621,37.081-21.1,31.208-40.618-4.57-17.7-25.531-29.107-42.86-21.833-17.261,6.293-26.276,28.7-17.114,44.914A32.531,32.531,0,0,0,591.207,136.534Zm-1.22,10.859c-24.627.1-45.493-24.265-41.727-48.6,2.51-23.608,27.063-41.874,50.5-37.1,22.962,3.789,40.088,28.228,34.753,51.186C629.65,132.734,610.406,148.42,589.987,147.393Z" class="b" transform="translate(-238.11 -25.924)"/><path d="M149.444,104.82H118.915c-13.155,0-23.863,9.085-23.863,20.251v24.8c0,11.167,10.708,20.25,23.863,20.25h45.1V177.9c0,6.045-6.534,10.963-14.568,10.963l-46.02-.006-2.895-.008v.061c-.135-.011-.261-.04-.4-.04a4.627,4.627,0,1,0,0,9.255c.135,0,.261-.032.4-.04v.055l48.914.011c13.16,0,23.863-9.085,23.863-20.251V125.071C173.307,113.9,162.6,104.82,149.444,104.82Zm14.568,56.017h-45.1c-8.034,0-14.569-4.918-14.569-10.963v-24.8c0-6.047,6.535-10.964,14.569-10.964h30.529c8.034,0,14.568,4.918,14.568,10.964Z" class="c" transform="translate(44.948 -53.367)"/><path d="M401,142.179V125.071c0-11.167-10.7-20.251-23.86-20.251H346.606c-13.16,0-23.861,9.085-23.861,20.251v24.8c0,11.167,10.7,20.25,23.861,20.25l49.743,0v0a4.644,4.644,0,1,0,0-9.287H346.606c-8.031,0-14.566-4.918-14.566-10.963v-7.745Zm-54.392-28.072h30.531c8.031,0,14.566,4.918,14.566,10.964v7.773H332.04v-7.773C332.04,119.025,338.575,114.107,346.606,114.107Z" class="c" transform="translate(-97.4 -53.367)"/><path d="M849.165,104.82H818.636c-13.16,0-23.863,9.085-23.863,20.251v67.653a4.647,4.647,0,0,0,9.295,0v-22.6h45.1c13.159,0,23.864-9.084,23.864-20.25v-24.8C873.028,113.9,862.324,104.82,849.165,104.82Zm-45.1,20.251c0-6.047,6.534-10.964,14.569-10.964h30.528c8.034,0,14.573,4.918,14.573,10.964v24.8c0,6.046-6.538,10.963-14.573,10.963h-45.1Z" class="c" transform="translate(-392.499 -53.367)"/><path d="M1080.289,132.575a2.335,2.335,0,0,0-.323-.03l-.414-.006a2.568,2.568,0,0,0-.555.006H1054.02l.011-.018-15.884.011a9.27,9.27,0,0,1-.116-18.539h55.035a4.646,4.646,0,1,0,0-9.287l-54.919-.007a18.556,18.556,0,0,0-.123,37.112l24.55.014v0l17.042,0a9.432,9.432,0,0,1-.45,18.857h-.015l-54.881-.01a4.644,4.644,0,1,0,0,9.287H1078.4a.461.461,0,0,0,.189-.022l.238.015c.154.011.31.025.465.025a18.717,18.717,0,0,0,1-37.409Zm-1,.882" class="c" transform="translate(-533.035 -53.295)"/><rect width="425" height="93.372" class="d" transform="translate(140 51.411)"/></g></svg>