<svg xmlns="http://www.w3.org/2000/svg" viewBox="0 0 192 192"><defs><clipPath id="a"><path d="M0 192h192V0H0v192z"/></clipPath><clipPath id="b"><path d="M0 192h192V0H0v192z"/></clipPath><clipPath id="c"><path d="M0 192h192V0H0v192z"/></clipPath><clipPath id="d"><path d="M0 192h192V0H0v192z"/></clipPath><clipPath id="e"><path d="M0 192h192V0H0v192z"/></clipPath><clipPath id="f"><path d="M0 192h192V0H0v192z"/></clipPath><clipPath id="g"><path d="M0 192h192V0H0v192z"/></clipPath><clipPath id="h"><path d="M192 192H0V0h192v192z"/></clipPath><clipPath id="i"><path d="M36 12v24.125H15.875v152.25h160.25V36.125H156V12h-44v24.125H80V12z" fill="red" stroke-width="23.686"/></clipPath></defs><g fill="none"><circle cx="95.749" cy="96" r="76" clip-path="url(#i)" stroke="#000" stroke-width="6"/><path d="M81 8.125h30v27.751H81z"/><path d="M8.082 96h19.335M166.207 96h19.336M95.75 184.167v-19.335" stroke="#000" stroke-width="6.04" stroke-linecap="round"/></g><g fill="red" stroke="#000" stroke-linecap="round"><path d="M118 91.8v48.4M74 91.8v48.4" stroke-width="7.92"/><path d="M74 91.8l44 48.4" stroke-width="8.307"/></g><path d="M96 8.7L70.5 70.888l2.414 2.413L96 63.1l23.086 10.2 2.414-2.413z"/></svg>