<svg xmlns="http://www.w3.org/2000/svg" viewBox="0 0 48 48"><title>deactive Filter</title><g id="Ebene_2" data-name="Ebene 2"><g id="Ebene_1-2" data-name="Ebene 1"><rect width="48" height="48" fill="none" rx="2.8"/><path fill="#fff" d="M9.6,14.7H38.4v2.6l-.2.3-11,9.1a.8.8,0,0,0-.2.5V39.4c0,.2-.1.3-.3.2l-5.7-3c-.1,0-.1-.1-.1-.2V27.2a.8.8,0,0,0-.2-.5L9.8,17.5c-.1,0-.2-.1-.2-.3Z"/><path fill="#fff" d="M38.4,9.7V13H9.6V9.7a.4.4,0,0,1,.4-.4H38A.4.4,0,0,1,38.4,9.7Z"/><path fill="#1d1d1b" d="M9.6,14.7H38.4v2.6l-.2.3-11,9.1a.8.8,0,0,0-.2.5V39.4c0,.2-.1.3-.3.2l-5.7-3c-.1,0-.1-.1-.1-.2V27.2a.8.8,0,0,0-.2-.5L9.8,17.5c-.1,0-.2-.1-.2-.3Z"/><path fill="#1d1d1b" d="M38.4,9.7V13H9.6V9.7a.4.4,0,0,1,.4-.4H38A.4.4,0,0,1,38.4,9.7Z"/></g></g></svg>